<svg width="512" height="512" viewBox="0 0 512 512" xmlns="http://www.w3.org/2000/svg">
  <rect width="512" height="512" fill="#000000"/>
  
  <!-- Data visualization bars -->
  <rect x="100" y="320" width="20" height="80" fill="#ffffff" opacity="0.8"/>
  <rect x="140" y="280" width="20" height="120" fill="#3b82f6" opacity="0.7"/>
  <rect x="180" y="300" width="20" height="100" fill="#ffffff" opacity="0.8"/>
  <rect x="220" y="250" width="20" height="150" fill="#3b82f6" opacity="0.7"/>
  <rect x="260" y="200" width="20" height="200" fill="#ffffff" opacity="0.9"/>
  <rect x="300" y="270" width="20" height="130" fill="#3b82f6" opacity="0.7"/>
  <rect x="340" y="290" width="20" height="110" fill="#ffffff" opacity="0.8"/>
  <rect x="380" y="330" width="20" height="70" fill="#3b82f6" opacity="0.7"/>
  
  <!-- Data flow lines -->
  <polyline points="110,320 150,280 190,300 230,250 270,200 310,270 350,290 390,330" 
            fill="none" stroke="#ffffff" stroke-width="2" opacity="0.6"/>
  
  <!-- Data points -->
  <circle cx="110" cy="320" r="4" fill="#ffffff" opacity="0.9"/>
  <circle cx="150" cy="280" r="4" fill="#3b82f6" opacity="0.8"/>
  <circle cx="190" cy="300" r="4" fill="#ffffff" opacity="0.9"/>
  <circle cx="230" cy="250" r="4" fill="#3b82f6" opacity="0.8"/>
  <circle cx="270" cy="200" r="5" fill="#ffffff" opacity="1"/>
  <circle cx="310" cy="270" r="4" fill="#3b82f6" opacity="0.8"/>
  <circle cx="350" cy="290" r="4" fill="#ffffff" opacity="0.9"/>
  <circle cx="390" cy="330" r="4" fill="#3b82f6" opacity="0.8"/>
  
  <!-- Grid lines -->
  <line x1="80" y1="420" x2="430" y2="420" stroke="#ffffff" stroke-width="1" opacity="0.3"/>
  <line x1="80" y1="360" x2="430" y2="360" stroke="#ffffff" stroke-width="1" opacity="0.2"/>
  <line x1="80" y1="300" x2="430" y2="300" stroke="#ffffff" stroke-width="1" opacity="0.2"/>
  <line x1="80" y1="240" x2="430" y2="240" stroke="#ffffff" stroke-width="1" opacity="0.2"/>
  <line x1="80" y1="180" x2="430" y2="180" stroke="#ffffff" stroke-width="1" opacity="0.2"/>
  
  <!-- Additional data nodes -->
  <circle cx="120" cy="120" r="6" fill="#ffffff" opacity="0.7"/>
  <circle cx="200" cy="100" r="5" fill="#3b82f6" opacity="0.6"/>
  <circle cx="280" cy="130" r="4" fill="#ffffff" opacity="0.7"/>
  <circle cx="360" cy="110" r="5" fill="#3b82f6" opacity="0.6"/>
  
  <!-- Connecting data flows -->
  <line x1="120" y1="120" x2="200" y2="100" stroke="#3b82f6" stroke-width="1" opacity="0.4" stroke-dasharray="3,3"/>
  <line x1="200" y1="100" x2="280" y2="130" stroke="#3b82f6" stroke-width="1" opacity="0.4" stroke-dasharray="3,3"/>
  <line x1="280" y1="130" x2="360" y2="110" stroke="#3b82f6" stroke-width="1" opacity="0.4" stroke-dasharray="3,3"/>
  
  <!-- Small analytical dots -->
  <circle cx="450" cy="200" r="2" fill="#ffffff" opacity="0.3"/>
  <circle cx="60" cy="180" r="2" fill="#3b82f6" opacity="0.3"/>
  <circle cx="440" cy="350" r="2" fill="#ffffff" opacity="0.3"/>
  <circle cx="70" cy="370" r="2" fill="#3b82f6" opacity="0.3"/>
</svg>