<svg width="512" height="512" viewBox="0 0 512 512" xmlns="http://www.w3.org/2000/svg">
  <rect width="512" height="512" fill="#000000"/>
  
  <!-- Central hub node -->
  <circle cx="256" cy="256" r="12" fill="#ffffff" opacity="0.9"/>
  
  <!-- Team member nodes -->
  <circle cx="180" cy="180" r="8" fill="#ffffff" opacity="0.8"/>
  <circle cx="332" cy="180" r="8" fill="#ffffff" opacity="0.8"/>
  <circle cx="380" cy="256" r="8" fill="#3b82f6" opacity="0.7"/>
  <circle cx="332" cy="332" r="8" fill="#ffffff" opacity="0.8"/>
  <circle cx="180" cy="332" r="8" fill="#ffffff" opacity="0.8"/>
  <circle cx="132" cy="256" r="8" fill="#3b82f6" opacity="0.7"/>
  
  <!-- Secondary network nodes -->
  <circle cx="120" cy="120" r="6" fill="#3b82f6" opacity="0.6"/>
  <circle cx="256" cy="100" r="6" fill="#ffffff" opacity="0.7"/>
  <circle cx="392" cy="120" r="6" fill="#3b82f6" opacity="0.6"/>
  <circle cx="420" cy="300" r="6" fill="#ffffff" opacity="0.7"/>
  <circle cx="392" cy="392" r="6" fill="#3b82f6" opacity="0.6"/>
  <circle cx="256" cy="412" r="6" fill="#ffffff" opacity="0.7"/>
  <circle cx="120" cy="392" r="6" fill="#3b82f6" opacity="0.6"/>
  <circle cx="92" cy="212" r="6" fill="#ffffff" opacity="0.7"/>
  
  <!-- Primary connections to center -->
  <line x1="256" y1="256" x2="180" y2="180" stroke="#ffffff" stroke-width="2" opacity="0.7"/>
  <line x1="256" y1="256" x2="332" y2="180" stroke="#ffffff" stroke-width="2" opacity="0.7"/>
  <line x1="256" y1="256" x2="380" y2="256" stroke="#ffffff" stroke-width="2" opacity="0.7"/>
  <line x1="256" y1="256" x2="332" y2="332" stroke="#ffffff" stroke-width="2" opacity="0.7"/>
  <line x1="256" y1="256" x2="180" y2="332" stroke="#ffffff" stroke-width="2" opacity="0.7"/>
  <line x1="256" y1="256" x2="132" y2="256" stroke="#ffffff" stroke-width="2" opacity="0.7"/>
  
  <!-- Secondary connections -->
  <line x1="180" y1="180" x2="120" y2="120" stroke="#3b82f6" stroke-width="1.5" opacity="0.5"/>
  <line x1="332" y1="180" x2="392" y2="120" stroke="#3b82f6" stroke-width="1.5" opacity="0.5"/>
  <line x1="380" y1="256" x2="420" y2="300" stroke="#3b82f6" stroke-width="1.5" opacity="0.5"/>
  <line x1="332" y1="332" x2="392" y2="392" stroke="#3b82f6" stroke-width="1.5" opacity="0.5"/>
  <line x1="180" y1="332" x2="120" y2="392" stroke="#3b82f6" stroke-width="1.5" opacity="0.5"/>
  <line x1="132" y1="256" x2="92" y2="212" stroke="#3b82f6" stroke-width="1.5" opacity="0.5"/>
  
  <!-- Inter-node connections -->
  <line x1="180" y1="180" x2="256" y2="100" stroke="#ffffff" stroke-width="1" opacity="0.4"/>
  <line x1="332" y1="180" x2="256" y2="100" stroke="#ffffff" stroke-width="1" opacity="0.4"/>
  <line x1="180" y1="332" x2="256" y2="412" stroke="#ffffff" stroke-width="1" opacity="0.4"/>
  <line x1="332" y1="332" x2="256" y2="412" stroke="#ffffff" stroke-width="1" opacity="0.4"/>
  
  <!-- Collaboration lines between team members -->
  <line x1="180" y1="180" x2="332" y2="180" stroke="#ffffff" stroke-width="1" opacity="0.3" stroke-dasharray="4,4"/>
  <line x1="332" y1="180" x2="380" y2="256" stroke="#ffffff" stroke-width="1" opacity="0.3" stroke-dasharray="4,4"/>
  <line x1="180" y1="332" x2="332" y2="332" stroke="#ffffff" stroke-width="1" opacity="0.3" stroke-dasharray="4,4"/>
  <line x1="132" y1="256" x2="180" y2="180" stroke="#ffffff" stroke-width="1" opacity="0.3" stroke-dasharray="4,4"/>
  
  <!-- Small peripheral nodes -->
  <circle cx="60" cy="60" r="3" fill="#ffffff" opacity="0.4"/>
  <circle cx="452" cy="60" r="3" fill="#3b82f6" opacity="0.4"/>
  <circle cx="452" cy="452" r="3" fill="#ffffff" opacity="0.4"/>
  <circle cx="60" cy="452" r="3" fill="#3b82f6" opacity="0.4"/>
</svg>