<?xml version="1.0" encoding="UTF-8" standalone="no"?>
<svg
   version="1.1"
   id="svg1"
   width="600"
   height="600"
   viewBox="0 0 600 600"
   xmlns="http://www.w3.org/2000/svg">
  <!-- Simplified data intelligence network visualization -->
  <!-- Background is transparent, no fill specified -->
  
  <g id="network-nodes" fill="white" opacity="0.8">
    <!-- Central hub with multiple connection points -->
    <circle cx="300" cy="300" r="12" />
    
    <!-- Primary ring of nodes -->
    <circle cx="180" cy="180" r="8" />
    <circle cx="420" cy="180" r="8" />
    <circle cx="480" cy="300" r="8" />
    <circle cx="420" cy="420" r="8" />
    <circle cx="180" cy="420" r="8" />
    <circle cx="120" cy="300" r="8" />
    
    <!-- Secondary nodes -->
    <circle cx="240" cy="120" r="6" />
    <circle cx="360" cy="120" r="6" />
    <circle cx="480" cy="180" r="6" />
    <circle cx="540" cy="300" r="6" />
    <circle cx="480" cy="420" r="6" />
    <circle cx="360" cy="480" r="6" />
    <circle cx="240" cy="480" r="6" />
    <circle cx="120" cy="420" r="6" />
    <circle cx="60" cy="300" r="6" />
    <circle cx="120" cy="180" r="6" />
    
    <!-- Tertiary network nodes -->
    <circle cx="150" cy="90" r="4" />
    <circle cx="300" cy="60" r="4" />
    <circle cx="450" cy="90" r="4" />
    <circle cx="510" cy="150" r="4" />
    <circle cx="540" cy="300" r="4" />
    <circle cx="510" cy="450" r="4" />
    <circle cx="450" cy="510" r="4" />
    <circle cx="300" cy="540" r="4" />
    <circle cx="150" cy="510" r="4" />
    <circle cx="90" cy="450" r="4" />
    <circle cx="60" cy="300" r="4" />
    <circle cx="90" cy="150" r="4" />
    
    <!-- Peripheral micro-nodes -->
    <circle cx="80" cy="80" r="2" />
    <circle cx="300" cy="30" r="2" />
    <circle cx="520" cy="80" r="2" />
    <circle cx="570" cy="300" r="2" />
    <circle cx="520" cy="520" r="2" />
    <circle cx="300" cy="570" r="2" />
    <circle cx="80" cy="520" r="2" />
    <circle cx="30" cy="300" r="2" />
    
    <!-- Additional scattered nodes for density -->
    <circle cx="200" cy="200" r="3" />
    <circle cx="400" cy="200" r="3" />
    <circle cx="400" cy="400" r="3" />
    <circle cx="200" cy="400" r="3" />
    <circle cx="260" cy="260" r="2" />
    <circle cx="340" cy="260" r="2" />
    <circle cx="340" cy="340" r="2" />
    <circle cx="260" cy="340" r="2" />
  </g>
  
  <!-- Connection network lines -->
  <g id="connections" stroke="white" stroke-width="1.5" opacity="0.4" fill="none">
    <!-- Primary hub connections -->
    <line x1="300" y1="300" x2="180" y2="180" />
    <line x1="300" y1="300" x2="420" y2="180" />
    <line x1="300" y1="300" x2="480" y2="300" />
    <line x1="300" y1="300" x2="420" y2="420" />
    <line x1="300" y1="300" x2="180" y2="420" />
    <line x1="300" y1="300" x2="120" y2="300" />
    
    <!-- Ring connections -->
    <line x1="180" y1="180" x2="420" y2="180" />
    <line x1="420" y1="180" x2="480" y2="300" />
    <line x1="480" y1="300" x2="420" y2="420" />
    <line x1="420" y1="420" x2="180" y2="420" />
    <line x1="180" y1="420" x2="120" y2="300" />
    <line x1="120" y1="300" x2="180" y2="180" />
    
    <!-- Secondary connections -->
    <line x1="240" y1="120" x2="180" y2="180" />
    <line x1="360" y1="120" x2="420" y2="180" />
    <line x1="480" y1="180" x2="480" y2="300" />
    <line x1="480" y1="420" x2="420" y2="420" />
    <line x1="360" y1="480" x2="180" y2="420" />
    <line x1="240" y1="480" x2="180" y2="420" />
    <line x1="120" y1="420" x2="120" y2="300" />
    <line x1="120" y1="180" x2="180" y2="180" />
  </g>
  
  <!-- Data flow indicators with dashed lines -->
  <g id="data-flow" stroke="white" stroke-width="2" opacity="0.6" fill="none" stroke-dasharray="6,3">
    <path d="M 300,300 Q 240,240 180,180" />
    <path d="M 300,300 Q 360,240 420,180" />
    <path d="M 300,300 Q 390,300 480,300" />
    <path d="M 300,300 Q 360,360 420,420" />
    <path d="M 300,300 Q 240,360 180,420" />
    <path d="M 300,300 Q 210,300 120,300" />
  </g>
  
  <!-- Pulse animation rings for central hub -->
  <g id="pulse-rings" fill="none" stroke="white" stroke-width="1" opacity="0.2">
    <circle cx="300" cy="300" r="40" />
    <circle cx="300" cy="300" r="80" />
    <circle cx="300" cy="300" r="120" />
  </g>
</svg>