<svg width="512" height="512" viewBox="0 0 512 512" xmlns="http://www.w3.org/2000/svg">
  <rect width="512" height="512" fill="#000000"/>
  
  <!-- Neural network nodes -->
  <circle cx="256" cy="150" r="8" fill="#ffffff" opacity="0.9"/>
  <circle cx="180" cy="200" r="6" fill="#ffffff" opacity="0.8"/>
  <circle cx="332" cy="200" r="6" fill="#ffffff" opacity="0.8"/>
  <circle cx="120" cy="280" r="5" fill="#3b82f6" opacity="0.7"/>
  <circle cx="200" cy="300" r="5" fill="#ffffff" opacity="0.8"/>
  <circle cx="312" cy="280" r="5" fill="#3b82f6" opacity="0.7"/>
  <circle cx="392" cy="280" r="5" fill="#ffffff" opacity="0.8"/>
  <circle cx="256" cy="360" r="7" fill="#ffffff" opacity="0.9"/>
  <circle cx="160" cy="380" r="4" fill="#3b82f6" opacity="0.6"/>
  <circle cx="352" cy="380" r="4" fill="#3b82f6" opacity="0.6"/>
  
  <!-- Connecting lines -->
  <line x1="256" y1="150" x2="180" y2="200" stroke="#ffffff" stroke-width="1.5" opacity="0.6"/>
  <line x1="256" y1="150" x2="332" y2="200" stroke="#ffffff" stroke-width="1.5" opacity="0.6"/>
  <line x1="180" y1="200" x2="120" y2="280" stroke="#ffffff" stroke-width="1" opacity="0.4"/>
  <line x1="180" y1="200" x2="200" y2="300" stroke="#ffffff" stroke-width="1" opacity="0.4"/>
  <line x1="332" y1="200" x2="312" y2="280" stroke="#ffffff" stroke-width="1" opacity="0.4"/>
  <line x1="332" y1="200" x2="392" y2="280" stroke="#ffffff" stroke-width="1" opacity="0.4"/>
  <line x1="200" y1="300" x2="256" y2="360" stroke="#ffffff" stroke-width="1.5" opacity="0.5"/>
  <line x1="312" y1="280" x2="256" y2="360" stroke="#ffffff" stroke-width="1.5" opacity="0.5"/>
  <line x1="256" y1="360" x2="160" y2="380" stroke="#3b82f6" stroke-width="1" opacity="0.4"/>
  <line x1="256" y1="360" x2="352" y2="380" stroke="#3b82f6" stroke-width="1" opacity="0.4"/>
  
  <!-- Additional dots for texture -->
  <circle cx="80" cy="120" r="2" fill="#ffffff" opacity="0.3"/>
  <circle cx="432" cy="140" r="2" fill="#ffffff" opacity="0.3"/>
  <circle cx="60" cy="360" r="2" fill="#3b82f6" opacity="0.3"/>
  <circle cx="450" cy="340" r="2" fill="#3b82f6" opacity="0.3"/>
  <circle cx="100" cy="450" r="2" fill="#ffffff" opacity="0.3"/>
  <circle cx="412" cy="460" r="2" fill="#ffffff" opacity="0.3"/>
</svg>